<?xml version="1.0" encoding="UTF-8"?>
<svg width="700pt" height="700pt" version="1.1" viewBox="0 0 700 700" xmlns="http://www.w3.org/2000/svg">
 <g>
  <path d="m254.55 196.12 31.879 22.664c18.957-10.164 40.602-15.961 63.574-15.961s44.617 5.7969 63.574 15.961l31.879-22.664c8.6641-6.1445 15.75-19.879 15.75-30.508v-46.465c0-10.625-8.6953-19.32-19.32-19.32l-183.77 0.003907c-10.625 0-19.32 8.6953-19.32 19.32v46.465c0 10.625 7.0859 24.359 15.75 30.504z"/>
  <path d="m350 215.71c-67.492 0-122.22 54.727-122.22 122.23 0 67.492 54.727 122.22 122.22 122.22s122.22-54.727 122.22-122.22c0-67.508-54.727-122.23-122.22-122.23zm47.152 191.52-47.152-24.777-47.152 24.793 9.0039-52.5-38.148-37.172 52.711-7.6562 23.586-47.781 23.574 47.77 52.711 7.6562-38.148 37.172z"/>
 </g>
</svg>
